<?xml version="1.0" standalone="no"?>
<!DOCTYPE svg PUBLIC "-//W3C//DTD SVG 20010904//EN"
 "http://www.w3.org/TR/2001/REC-SVG-20010904/DTD/svg10.dtd">
<svg version="1.0" xmlns="http://www.w3.org/2000/svg"
 width="70.000000pt" height="70.000000pt" viewBox="0 0 70.000000 70.000000"
 preserveAspectRatio="xMidYMid meet">
<metadata>
Created by potrace 1.11, written by Peter Selinger 2001-2013
</metadata>
<g transform="translate(0.000000,70.000000) scale(0.100000,-0.100000)"
fill="#000000" stroke="none">
<path d="M243 672 c-90 -32 -163 -97 -202 -181 -22 -47 -26 -70 -26 -141 0
-73 4 -93 28 -142 36 -74 96 -134 166 -167 47 -22 70 -26 141 -26 102 0 169
27 239 95 67 66 95 137 96 240 0 102 -27 169 -96 239 -88 89 -233 124 -346 83z"/>
</g>
</svg>
